<svg xmlns="http://www.w3.org/2000/svg" xmlns:xlink="http://www.w3.org/1999/xlink" version="1.1" width="188" height="60" viewBox="0 0 3168.5393258426966 1011.1085832745719">	
	<g transform="scale(8.426966292134832) translate(10, 10)">
		<defs id="SvgjsDefs2174"/><g id="SvgjsG2175" featureKey="symbolFeature-0" transform="matrix(1.5624014722849322,0,0,1.5624014722849322,-1.5592176674430278,-1.5667761773350464)" fill="#fff"><g xmlns="http://www.w3.org/2000/svg"><path d="M40.9405,1.0028c-13.2734,0-24.0723,10.7935-24.0728,24.0601c-0.0004,4.7399,1.365,9.2678,3.9029,13.1421l-2.328,2.3283   l-1.1237-1.1237c-0.3906-0.3906-1.0234-0.3906-1.4141,0L3.212,52.1019c-2.9515,2.9495-2.9526,7.7291,0,10.6816   c2.9506,2.9506,7.7292,2.9525,10.6816,0l12.6929-12.6924c0.1875-0.1875,0.293-0.4414,0.293-0.707s-0.1055-0.5195-0.293-0.707   l-1.1233-1.1233l2.3305-2.3305c3.8762,2.5358,8.4061,3.9001,13.1478,3.9001c13.2666,0,24.0601-10.793,24.0605-24.0596   C65.003,11.768,54.2418,1.0028,40.9405,1.0028z M12.4796,61.3695c-2.1688,2.1688-5.6831,2.1704-7.8535,0   c-2.1702-2.1702-2.1704-5.6831,0-7.8535l8.2653-8.265l7.8535,7.8535L12.4796,61.3695z M21.4519,52.3975l-7.8535-7.8535   l3.0135-3.0134c0.1188,0.1188,8.2059,8.2059,7.8535,7.8535L21.4519,52.3975z M24.0492,46.1398l-4.1924-4.1924l2.097-2.0972   c1.2654,1.6166,2.5753,2.9259,4.194,4.1912L24.0492,46.1398z M40.9415,47.1234h-0.002c-12.1954,0-22.0718-9.8597-22.0718-22.0605   c0.0005-12.1641,9.9028-22.0601,22.0737-22.0601c12.1902,0,22.0605,9.8651,22.0605,22.061   C63.0015,37.2279,53.1051,47.1234,40.9415,47.1234z"/><path d="M59.9557,25.0638C59.9561,14.5795,51.421,6.0492,40.9298,6.0487c-10.4854,0-19.0156,8.5298-19.0156,19.0142   c0,10.2722,8.3287,19.0146,19.0142,19.0146C51.5786,44.0775,59.9552,35.3536,59.9557,25.0638z M40.9298,7.0487   c9.9399,0.0005,18.0264,8.082,18.0259,18.0151c-0.0001,1.0365-0.1075,2.0465-0.2766,3.0356   c-0.6535-0.7612-1.4476-1.3853-2.3518-1.8218c-0.1636-0.0791-0.3594-0.0635-0.5073,0.043c-1.6348,1.166-3.959,1.1553-5.5576,0.002   c-0.1504-0.1084-0.3481-0.125-0.5132-0.0439c-1.9305,0.9497-3.3362,2.6653-3.9001,4.7245   c-2.924,2.0056-6.9277,2.0031-9.8259,0.0087c-0.5643-2.0751-1.9721-3.7943-3.9043-4.7332   c-0.1646-0.0811-0.3599-0.0645-0.5088,0.042c-1.623,1.1563-3.9375,1.1641-5.5703,0c-0.1489-0.1074-0.3467-0.124-0.5107-0.041   c-0.902,0.4431-1.6925,1.0683-2.3416,1.8248c-0.1695-0.9968-0.2731-2.0106-0.2731-3.0416   C22.9141,15.1297,30.9957,7.0487,40.9298,7.0487z M23.4614,29.4009c0.5751-0.8706,1.3425-1.5917,2.2555-2.093   c1.8594,1.1836,4.3677,1.1738,6.2173,0c1.4658,0.7983,2.5799,2.1807,3.0712,3.7838c-2.9376,1.5697-5.108,4.2008-6.0876,7.3563   C26.0572,35.8744,24.299,32.7858,23.4614,29.4009z M29.7456,39.1632c0.8412-3.1211,2.9286-5.7395,5.8062-7.2478   c3.1802,2.1367,7.5474,2.1416,10.7544-0.001c2.8843,1.501,4.9753,4.1187,5.8163,7.2433   c-3.0784,2.4465-6.9645,3.9198-11.1942,3.9198C36.8188,43.0775,32.9211,41.6942,29.7456,39.1632z M52.9517,38.4473   c-0.9781-3.158-3.1489-5.787-6.0893-7.3517c0.4907-1.6151,1.5837-2.9718,3.0728-3.7866c1.8311,1.1729,4.3481,1.1816,6.2095-0.002   c0.9123,0.4926,1.6814,1.2129,2.2614,2.0905C57.5236,32.9465,55.5919,36.0763,52.9517,38.4473z"/><path d="M28.8209,26.1488c1.9136,0,3.4702-1.5518,3.4702-3.46s-1.5566-3.46-3.4702-3.46c-1.9023,0-3.4502,1.5518-3.4502,3.46   S26.9185,26.1488,28.8209,26.1488z M28.8209,20.2289c1.3623,0,2.4702,1.1035,2.4702,2.46s-1.1079,2.46-2.4702,2.46   c-1.3511,0-2.4502-1.1035-2.4502-2.46S27.4698,20.2289,28.8209,20.2289z"/><path d="M40.9307,29.9593c3.1157,0,5.6504-2.5254,5.6504-5.6299c0-3.1152-2.5347-5.6504-5.6504-5.6504   c-3.1099,0-5.6396,2.5352-5.6396,5.6504C35.2911,27.4339,37.8209,29.9593,40.9307,29.9593z M40.9307,19.6791   c2.5645,0,4.6504,2.0859,4.6504,4.6504c0,2.5527-2.0859,4.6299-4.6504,4.6299c-2.5581,0-4.6396-2.0771-4.6396-4.6299   C36.2911,21.765,38.3726,19.6791,40.9307,19.6791z"/><path d="M53.0411,26.1488c1.9077,0,3.46-1.5518,3.46-3.46s-1.5522-3.46-3.46-3.46s-3.46,1.5518-3.46,3.46   S51.1334,26.1488,53.0411,26.1488z M53.0411,20.2289c1.3564,0,2.46,1.1035,2.46,2.46s-1.1035,2.46-2.46,2.46   s-2.46-1.1035-2.46-2.46S51.6847,20.2289,53.0411,20.2289z"/></g></g><g id="SvgjsG2176" featureKey="textGroupContainer" transform="matrix(1,0,0,1,355,26)" fill="#fff"><rect xmlns="http://www.w3.org/2000/svg" y="0" height="1" width="1" opacity="0"/><rect xmlns="http://www.w3.org/2000/svg" y="0" x="-235" width="3" height="48"/></g><g id="SvgjsG2177" featureKey="vMvB0T-0" transform="matrix(1.7158544191675307,0,0,1.7158544191675307,137.65682821616502,27.636239373682766)" fill="#fff"><path d="M1.3 16.96 q0.98 0.6 1.9 0.6 q0.96 0 1.33 -0.61 t0.37 -1.89 l0 -8.72 q0.6 -0.12 1.58 -0.12 t1.62 0.12 l0 8.42 q0 1.28 -0.22 2.29 t-0.76 1.71 t-1.43 1.07 t-2.23 0.37 q-1.86 0 -3.26 -0.88 q0.22 -1.38 1.1 -2.36 z M13.9 16.28 q0.54 1.56 2.18 1.56 q0.82 0 1.33 -0.41 t0.8 -1.04 t0.39 -1.41 t0.1 -1.54 q0 -0.7 -0.05 -1.56 t-0.29 -1.61 t-0.76 -1.26 t-1.52 -0.51 q-0.96 0 -1.47 0.49 t-0.76 1.21 t-0.31 1.53 t-0.06 1.43 q0 0.92 0.09 1.64 t0.33 1.48 z M12.28 19.04 q-2.14 -1.78 -2.14 -5.86 q0 -1.76 0.41 -3.09 t1.18 -2.23 t1.87 -1.36 t2.48 -0.46 t2.49 0.46 t1.88 1.37 t1.18 2.24 t0.41 3.07 t-0.41 3.07 t-1.18 2.23 t-1.88 1.36 t-2.49 0.46 q-2.28 0 -3.8 -1.26 z M24.419999999999998 6.300000000000001 q1.62 -0.04 2.77 -0.06 t1.85 -0.02 q2.18 0 3.43 0.91 t1.25 2.73 q0 0.88 -0.5 1.64 t-1.28 1.1 q0.5 0.16 0.95 0.51 t0.77 0.82 t0.51 1.02 t0.19 1.13 q0 2.06 -1.31 3.05 t-3.71 0.99 q-0.74 0 -1.96 -0.02 t-2.96 -0.06 l-0.14 -0.14 l0 -13.46 z M29.099999999999998 13.98 l-1.66 0 l0 3.9 q0.52 -0.02 1.17 0 t1.21 -0.1 t0.94 -0.58 t0.38 -1.28 q0 -0.78 -0.49 -1.36 t-1.55 -0.58 z M27.439999999999998 8.48 l0 3.22 l1.42 0 q0.96 0 1.35 -0.47 t0.39 -1.15 t-0.4 -1.13 t-1.34 -0.45 l-0.81 0 t-0.61 -0.02 z M39.760000000000005 9.06 l0.02 1.56 l0 1.26 l4.28 0 q0.16 0.6 0.16 1.31 t-0.16 1.31 l-4.28 0 l0 5.5 q-0.64 0.12 -1.6 0.12 t-1.6 -0.12 l0 -13.54 l0.14 -0.12 l8.56 0 q0.12 0.5 0.12 1.25 t-0.41 1.11 t-1.29 0.36 l-3.94 0 z M47.32000000000001 20 l0 -13.66 q0.62 -0.12 1.6 -0.12 t1.62 0.12 l0 13.66 q-0.64 0.12 -1.62 0.12 t-1.6 -0.12 z M64.38000000000001 6.199999999999999 l0.14 0.14 l0 13.6 q-0.8 0.18 -1.89 0.18 t-1.93 -0.12 l-3.14 -7.16 q-0.56 -1.22 -1.14 -2.82 l-0.06 0.02 q0.24 2.92 0.24 5.98 l0 3.98 q-0.62 0.12 -1.5 0.12 t-1.48 -0.12 l0 -13.6 q0.76 -0.18 1.83 -0.18 t1.91 0.12 l3.1 7.14 q0.84 1.98 1.24 3.04 l0.08 -0.04 q-0.24 -2.78 -0.24 -5.9 l0 -2.44 q0 -1.04 0.42 -1.49 t1.36 -0.45 l1.06 0 z M78.30000000000001 6.199999999999999 l0.14 0.14 l0 13.6 q-0.8 0.18 -1.89 0.18 t-1.93 -0.12 l-3.14 -7.16 q-0.56 -1.22 -1.14 -2.82 l-0.06 0.02 q0.24 2.92 0.24 5.98 l0 3.98 q-0.62 0.12 -1.5 0.12 t-1.48 -0.12 l0 -13.6 q0.76 -0.18 1.83 -0.18 t1.91 0.12 l3.1 7.14 q0.84 1.98 1.24 3.04 l0.08 -0.04 q-0.24 -2.78 -0.24 -5.9 l0 -2.44 q0 -1.04 0.42 -1.49 t1.36 -0.45 l1.06 0 z M90.30000000000001 19.12 q-0.64 0.52 -1.68 0.76 t-2.3 0.24 q-0.62 0 -1.79 -0.02 t-2.93 -0.06 l-0.14 -0.14 l0 -13.46 l0.14 -0.14 q1.16 -0.04 2.41 -0.06 t2.63 -0.02 q1.7 0 2.84 0.54 t1.82 1.48 t0.96 2.21 t0.28 2.73 q0 2 -0.46 3.46 t-1.78 2.48 z M86.62 17.62 q2.64 0 2.64 -4.44 q0 -4.46 -2.64 -4.46 l-1.13 0 t-0.85 -0.02 l0 8.94 q0.36 -0.02 0.85 -0.02 l1.13 0 z M97.94000000000001 15.96 l-0.02 1.44 l0 0.02 q0.92 -0.04 1.48 -0.04 l4.64 0 q0 0.74 -0.06 1.14 q-0.24 1.54 -2.04 1.54 l-5.32 0 q-0.86 0 -1.35 -0.5 t-0.49 -1.36 l0 -11.72 l0.14 -0.14 l8.62 0 q0.12 0.58 0.12 1.26 t-0.28 1.42 l-5.46 0 l0.02 1.44 l0 1.4 q0.52 -0.02 1.36 -0.02 l3.06 0 q0.18 0.56 0.18 1.28 t-0.18 1.32 l-4.42 0 l0 1.52 z M116.06 10.56 q0 0.66 -0.2 1.25 t-0.53 1.06 t-0.78 0.82 t-0.93 0.53 q1.04 0.38 1.54 1.84 l0.6 1.7 q0.34 1 1 1.48 q-0.3 0.4 -0.9 0.67 t-1.32 0.27 t-1.12 -0.41 t-0.74 -1.43 l-0.72 -2.1 q-0.22 -0.6 -0.59 -0.92 t-1.11 -0.32 l-0.82 0 l0 5 q-0.64 0.12 -1.6 0.12 t-1.58 -0.12 l0 -13.56 l0.14 -0.14 q1.74 -0.04 2.93 -0.06 t1.87 -0.02 q1.1 0 2 0.27 t1.53 0.81 t0.98 1.36 t0.35 1.9 z M109.44000000000001 8.62 l0 3.92 q0.9 0 1.54 -0.03 t1.03 -0.24 t0.59 -0.59 t0.2 -1.1 q0 -1.94 -1.88 -1.94 l-0.83 0 t-0.65 -0.02 z"/></g>
	</g>
</svg>